<?xml version="1.0" encoding="UTF-8"?>
<svg id="Layer_2" data-name="Layer 2" xmlns="http://www.w3.org/2000/svg" xmlns:xlink="http://www.w3.org/1999/xlink" viewBox="0 0 882.34 283.26">
  <defs>
    <style>
      .cls-1 {
        fill: #fff;
      }
      .cls-2 {
        fill: none;
        stroke: url(#linear-gradient);
        stroke-miterlimit: 10;
        stroke-width: 8.5px;
      }
    </style>
    <linearGradient id="linear-gradient" x1="0" y1="141.63" x2="882.34" y2="141.63" gradientUnits="userSpaceOnUse">
      <stop offset="0" stop-color="#da8cbc"/>
      <stop offset="1" stop-color="#438bc9"/>
    </linearGradient>
  </defs>
  <g id="Layer_1-2" data-name="Layer 1">
    <g>
      <g>
        <path class="cls-1" d="M105.2,194.91h43.92v13.32h-60.3v-125.46h16.38v112.14Z"/>
        <path class="cls-1" d="M167.12,90.33c-2.16-2.16-3.24-4.8-3.24-7.92s1.08-5.76,3.24-7.92,4.8-3.24,7.92-3.24,5.55,1.08,7.65,3.24c2.1,2.16,3.15,4.8,3.15,7.92s-1.05,5.76-3.15,7.92c-2.1,2.16-4.65,3.24-7.65,3.24s-5.76-1.08-7.92-3.24ZM182.96,109.59v98.64h-16.38v-98.64h16.38Z"/>
        <path class="cls-1" d="M247.58,193.11l30.6-83.52h17.46l-38.7,98.64h-19.08l-38.7-98.64h17.64l30.78,83.52Z"/>
        <path class="cls-1" d="M401.3,165.03h-78.84c.6,9.72,3.93,17.31,9.99,22.77,6.06,5.46,13.41,8.19,22.05,8.19,7.08,0,12.99-1.65,17.73-4.95,4.74-3.3,8.07-7.71,9.99-13.23h17.64c-2.64,9.48-7.92,17.19-15.84,23.13s-17.76,8.91-29.52,8.91c-9.36,0-17.73-2.1-25.11-6.3-7.38-4.2-13.17-10.17-17.37-17.91-4.2-7.74-6.3-16.71-6.3-26.91s2.04-19.14,6.12-26.82c4.08-7.68,9.81-13.59,17.19-17.73,7.38-4.14,15.87-6.21,25.47-6.21s17.64,2.04,24.84,6.12c7.2,4.08,12.75,9.69,16.65,16.83,3.9,7.14,5.85,15.21,5.85,24.21,0,3.12-.18,6.42-.54,9.9ZM380.78,135.6c-2.76-4.5-6.51-7.92-11.25-10.26-4.74-2.34-9.99-3.51-15.75-3.51-8.28,0-15.33,2.64-21.15,7.92-5.82,5.28-9.15,12.6-9.99,21.96h62.28c0-6.24-1.38-11.61-4.14-16.11Z"/>
        <path class="cls-1" d="M494.36,82.77v13.32h-54.54v42.3h44.28v13.32h-44.28v56.52h-16.38v-125.46h70.92Z"/>
        <path class="cls-1" d="M530.54,75.03v133.2h-16.38V75.03h16.38Z"/>
        <path class="cls-1" d="M576.34,203.55c-7.5-4.2-13.38-10.17-17.64-17.91-4.26-7.74-6.39-16.71-6.39-26.91s2.19-18.99,6.57-26.73c4.38-7.74,10.35-13.68,17.91-17.82,7.56-4.14,16.02-6.21,25.38-6.21s17.82,2.07,25.38,6.21c7.56,4.14,13.53,10.05,17.91,17.73,4.38,7.68,6.57,16.62,6.57,26.82s-2.25,19.17-6.75,26.91-10.59,13.71-18.27,17.91c-7.68,4.2-16.2,6.3-25.56,6.3s-17.61-2.1-25.11-6.3ZM618.01,191.31c5.16-2.76,9.33-6.9,12.51-12.42,3.18-5.52,4.77-12.24,4.77-20.16s-1.56-14.64-4.68-20.16c-3.12-5.52-7.2-9.63-12.24-12.33s-10.5-4.05-16.38-4.05-11.49,1.35-16.47,4.05c-4.98,2.7-8.97,6.81-11.97,12.33-3,5.52-4.5,12.24-4.5,20.16s1.47,14.82,4.41,20.34c2.94,5.52,6.87,9.63,11.79,12.33,4.92,2.7,10.32,4.05,16.2,4.05s11.4-1.38,16.56-4.14Z"/>
        <path class="cls-1" d="M805.03,109.59l-30.78,98.64h-16.92l-23.76-78.3-23.76,78.3h-16.92l-30.96-98.64h16.74l22.68,82.8,24.48-82.8h16.74l23.94,82.98,22.32-82.98h16.2Z"/>
      </g>
      <rect class="cls-2" x="4.25" y="4.25" width="873.84" height="274.76"/>
    </g>
  </g>
</svg>
